<svg xmlns="http://www.w3.org/2000/svg" width="122" height="122" viewBox="0 0 122 122">
  <g id="Group_3" data-name="Group 3" transform="translate(-757 -2135)">
    <rect id="Rectangle_6" data-name="Rectangle 6" width="122" height="122" rx="5" transform="translate(757 2135)" fill="#a1f1ad"/>
    <path id="icons8-website" d="M8.744,1A7.728,7.728,0,0,0,1,8.744v8.339A1.755,1.755,0,0,0,2.787,18.87H74.268a1.755,1.755,0,0,0,1.787-1.787V8.744A7.728,7.728,0,0,0,68.311,1Zm2.383,7.148h2.383a1.787,1.787,0,1,1,0,3.574H11.126a1.787,1.787,0,1,1,0-3.574Zm9.531,0H23.04a1.787,1.787,0,1,1,0,3.574H20.657a1.787,1.787,0,1,1,0-3.574Zm25.018,0H65.929a1.787,1.787,0,0,1,0,3.574H45.676a1.787,1.787,0,0,1,0-3.574ZM2.787,22.444A1.755,1.755,0,0,0,1,24.231v44.08a7.728,7.728,0,0,0,7.744,7.744H68.311a7.728,7.728,0,0,0,7.744-7.744V24.231a1.755,1.755,0,0,0-1.787-1.787ZM22.444,37.873a1.726,1.726,0,0,1,1.728,1.369L27.21,51.394l3.038-12.152a1.775,1.775,0,0,1,2.144-1.31,1.867,1.867,0,0,1,1.311,2.2L28.937,59.2a1.789,1.789,0,0,1-1.728,1.371A1.727,1.727,0,0,1,25.482,59.2L22.444,47.106,19.407,59.258a1.788,1.788,0,0,1-1.728,1.37,1.726,1.726,0,0,1-1.728-1.37L11.186,40.2a1.777,1.777,0,1,1,3.455-.834l3.038,12.032,3.038-12.152A1.788,1.788,0,0,1,22.444,37.873Zm16.083.059h8.339a1.787,1.787,0,0,1,0,3.574H40.315v5.957h6.552a1.787,1.787,0,0,1,0,3.574H40.315v5.957h6.552a1.787,1.787,0,1,1,0,3.574H38.528a1.755,1.755,0,0,1-1.787-1.787V39.719A1.755,1.755,0,0,1,38.528,37.932Zm14.892,0h4.17a5.974,5.974,0,0,1,5.957,5.957,6.046,6.046,0,0,1-1.073,3.395,7.158,7.158,0,0,1-3.693,13.284H53.419a1.755,1.755,0,0,1-1.787-1.787V39.719A1.755,1.755,0,0,1,53.419,37.932Zm1.787,3.574v4.765h2.383a2.383,2.383,0,0,0,0-4.765Zm0,8.339v7.148h3.574a3.574,3.574,0,1,0,0-7.148Z" transform="translate(779.472 2157.472)" fill="#18e136"/>
  </g>
</svg>
