<svg xmlns="http://www.w3.org/2000/svg" width="27.558" height="27.558" viewBox="0 0 27.558 27.558">
  <path id="icons8-twitter-circled" d="M15.779,2A13.779,13.779,0,1,0,29.558,15.779,13.794,13.794,0,0,0,15.779,2Zm6.732,11.1c.006.141.01.285.01.43a9.438,9.438,0,0,1-14.53,7.95A6.708,6.708,0,0,0,12.9,20.1a3.325,3.325,0,0,1-3.1-2.3,3.312,3.312,0,0,0,1.5-.057,3.321,3.321,0,0,1-2.661-3.254v-.042a3.305,3.305,0,0,0,1.5.416A3.325,3.325,0,0,1,9.117,10.43a9.427,9.427,0,0,0,6.84,3.468,3.32,3.32,0,0,1,5.654-3.027,6.652,6.652,0,0,0,2.108-.8,3.328,3.328,0,0,1-1.46,1.836,6.674,6.674,0,0,0,1.907-.523A6.748,6.748,0,0,1,22.511,13.1Z" transform="translate(-2 -2)" fill="#fff"/>
</svg>
